<svg width="36" height="36" viewBox="0 0 36 36" fill="none" xmlns="http://www.w3.org/2000/svg">
<path d="M31.6813 23.333C30.4607 21.2334 29.8124 18.2198 29.8124 14.6241C29.8124 11.4912 28.5679 8.48663 26.3526 6.27136C24.1373 4.05608 21.1328 2.81155 17.9999 2.81155C14.867 2.81155 11.8625 4.05608 9.64722 6.27136C7.43194 8.48663 6.18742 11.4912 6.18742 14.6241C6.18742 18.2212 5.54195 21.2334 4.32132 23.333C4.07225 23.7612 3.94022 24.2474 3.93849 24.7428C3.93677 25.2382 4.0654 25.7253 4.31148 26.1553C4.556 26.5855 4.91091 26.9426 5.33957 27.1898C5.76823 27.437 6.2551 27.5654 6.74992 27.5616H11.8377C11.9773 29.0995 12.6868 30.5296 13.827 31.5711C14.9673 32.6125 16.4557 33.1899 17.9999 33.1899C19.5442 33.1899 21.0326 32.6125 22.1728 31.5711C23.313 30.5296 24.0226 29.0995 24.1621 27.5616H29.2499C29.744 27.5646 30.23 27.4359 30.6579 27.1888C31.0857 26.9416 31.44 26.5849 31.6841 26.1553C31.9313 25.726 32.0611 25.2392 32.0606 24.7438C32.0601 24.2484 31.9293 23.7618 31.6813 23.333ZM17.9999 29.8116C17.3516 29.8117 16.7231 29.5878 16.2208 29.1778C15.7185 28.7678 15.3733 28.1968 15.2437 27.5616H20.7562C20.6265 28.1968 20.2813 28.7678 19.7791 29.1778C19.2768 29.5878 18.6483 29.8117 17.9999 29.8116ZM7.68648 24.1866C8.93101 21.6553 9.56242 18.4406 9.56242 14.6241C9.56242 12.3863 10.4514 10.2402 12.0337 8.65784C13.616 7.0755 15.7622 6.18655 17.9999 6.18655C20.2377 6.18655 22.3838 7.0755 23.9661 8.65784C25.5485 10.2402 26.4374 12.3863 26.4374 14.6241C26.4374 18.4392 27.0674 21.6553 28.3119 24.1866H7.68648Z" fill="#EEEEEE"/>
</svg>
